/* XPM */
static char *_867f192f8d1449bbad8c7e83ce3eda3Bc7ey34R9Id2vsNV[] = {
/* columns rows colors chars-per-pixel */
"50 50 169 2 ",
"   c None",
".  c #050000",
"X  c #0B0100",
"o  c #130000",
"O  c #1B0000",
"+  c #230000",
"@  c #25170E",
"#  c #29170B",
"$  c #2C1B0D",
"%  c #2C1503",
"&  c #341502",
"*  c #3B1701",
"=  c #331B06",
"-  c #3B1B05",
";  c #341D0C",
":  c #3A1E0B",
">  c #2C1D13",
",  c #271F1C",
"<  c #2B1D19",
"1  c #341E10",
"2  c #311E18",
"3  c #35210D",
"4  c #3B210D",
"5  c #292116",
"6  c #2C211A",
"7  c #2F291F",
"8  c #342215",
"9  c #3B2313",
"0  c #3E2A17",
"q  c #34241A",
"w  c #38261A",
"e  c #36281F",
"r  c #3D2B1D",
"t  c #2E2623",
"y  c #362920",
"u  c #3B2D23",
"i  c #3F3222",
"p  c #3D312D",
"a  c #411E02",
"s  c #44240D",
"d  c #4B2609",
"f  c #46280C",
"g  c #4E290F",
"h  c #50260B",
"j  c #552A0E",
"k  c #432610",
"l  c #4B2612",
"z  c #452B15",
"x  c #4D2B14",
"c  c #442C1C",
"v  c #4C2E1A",
"b  c #532D15",
"n  c #582C11",
"m  c #532E1B",
"M  c #582F19",
"N  c #4D321B",
"B  c #533216",
"V  c #583215",
"C  c #52321C",
"Z  c #59331C",
"A  c #662E09",
"S  c #6C3513",
"D  c #6E3A15",
"F  c #65361A",
"G  c #643A1C",
"H  c #6C3C1B",
"J  c #723612",
"K  c #733B14",
"L  c #753D19",
"P  c #7B3F1B",
"I  c #412D21",
"U  c #4B2D20",
"Y  c #453323",
"T  c #4B3322",
"R  c #42332A",
"E  c #4A3529",
"W  c #4E3929",
"Q  c #523521",
"!  c #5D3D28",
"~  c #643D24",
"^  c #6A3E23",
"/  c #713E20",
"(  c #74421D",
")  c #7A421B",
"_  c #5F432D",
"`  c #4D4037",
"'  c #4F4239",
"]  c #554536",
"[  c #59463C",
"{  c #644125",
"}  c #6A4124",
"|  c #65422A",
" . c #6B452B",
".. c #724223",
"X. c #7A4321",
"o. c #714329",
"O. c #644530",
"+. c #494540",
"@. c #514D4A",
"#. c #544945",
"$. c #9A511E",
"%. c #9D5525",
"&. c #9E5926",
"*. c #94552C",
"=. c #9C562B",
"-. c #96582D",
";. c #9E5B2C",
":. c #8F5A35",
">. c #8F5D3B",
",. c #8D5C3B",
"<. c #935732",
"1. c #955B34",
"2. c #9D5C31",
"3. c #9D5B32",
"4. c #915F3D",
"5. c #935D3B",
"6. c #9A5E39",
"7. c #9A5E3A",
"8. c #A35624",
"9. c #A25A27",
"0. c #A85825",
"q. c #A1572B",
"w. c #A1592A",
"e. c #A65B2D",
"r. c #A25A2B",
"t. c #A95D2C",
"y. c #A35B31",
"u. c #A95F31",
"i. c #8F613E",
"p. c #9E6033",
"a. c #96603B",
"s. c #9B623D",
"d. c #AA602F",
"f. c #A16035",
"g. c #AC6233",
"h. c #A4623A",
"j. c #8C5E41",
"k. c #8E6145",
"l. c #8C644B",
"z. c #936242",
"x. c #946449",
"c. c #9F6A48",
"v. c #AB6A40",
"b. c #93897F",
"n. c #94867B",
"m. c #8E8681",
"M. c #898886",
"N. c #908780",
"B. c #938B84",
"V. c #938C89",
"C. c #96908C",
"Z. c #9B9289",
"A. c #9E9E9D",
"S. c #A89E94",
"D. c #A39E9A",
"F. c #A3A19D",
"G. c #ABA29C",
"H. c #B0A79E",
"J. c #9E9FA1",
"K. c #A19FA0",
"L. c #9EA2A5",
"P. c #A4A3A3",
"I. c #ACA5A2",
"U. c #ABA8A3",
"Y. c #B1ACA6",
"T. c #D1CECB",
"R. c #DAD2CF",
"E. c #D5D5D4",
"W. c #FFFDFB",
/* pixels */
"                                                                            <                       ",
"                                                                        p X X X                     ",
"                                    .               X X               < o $ R y 6                   ",
"                                  . X e E c T T v 0 E $ X X         p X r W E r X                   ",
"                                . 7 R I U v m l C N N c Y > X       X I T c c q .                   ",
"                              . 5 i r Y U m Z b b B f N T I 2 X   . q I T ; ; w X                   ",
"                              . 3 3 9 v v m l M b d V B z T E > X X R I 9 o X X .                   ",
"                              o O O O : z Q v b V j h M x v c E q X w > X [     +.                  ",
"                            E ; j.4.n O s v z C b V h n M v N c c X o X                             ",
"                            o l.5.6.>.} O k T z m m M n b l C v Q ; X R                             ",
"                          O | ,.3.y.6.z.{ O 9 v v l m b M b b x x k r R                             ",
"                          - j.1.q.w.2.1.z.{ O : N m x x m b b x B N 1 X                             ",
"                        O ^ a.2.e.e.r.2.a.i.V O - C C z l b B b l v ; 8 #.                          ",
"                        * z.3.%.u.%.%.g.-.1.>.j O : Q N z x b l B N 3 9 X                           ",
"                      o  .s.;.9.%.w.e.8.e.;.h.4.* O z N N v b l s Z - ; o                           ",
"                      O j.1.%.9.e.;.e.e.8.e.;.6.i.O 3 0 T v b M Z l : 3 1 R                         ",
"                      n >.1.;.w.r.;.;.;.w.9.9.r.3...O $ Y c x M b v : 9 8 X                         ",
"                    : H 5.p.r.;.r.y.2.;.&.9.0.0.y.5.x O Y T x m b v : ; 8 X                         ",
"                    O >.1.-.y.%.r.r.2.;.;.w.0.0.y.<.l.O = v x b l C 9 ; 8 X                         ",
"                    O z.6.f.;.%.w.r.;.;.;.w.9.w.r.1.z.~ O - C l C C & ; w > C.                      ",
"                    M 5.3.=.=.g.w.w.;.2.;.r.w.w.r.p.:.x.b O Z x v v : 3 # e m.                      ",
"                    ^ 7.2.h.w.%.9.w.r.2.2.2.;.;.&.;.6.5.k.+ & N v - : 9 8 6 6                       ",
"                  y ^ 7.6.=.%.d.9.9.r.y.2.2.;.;.&.;.;.3.5.^ O v N = : 8 > < .                       ",
"                  X o.3.=.y.w.9.9.9.r.y.y.2.2.;.&.r.e.y.3.4.a - v 3 ; 8 > q X W.                    ",
"                  X x.3.=.q.g.w.9.9.w.r.y.2.3.;.&.9.0.0.2.:. .O 4 ; ; 8 q 6 X T.                    ",
"                  o ,.3.y.w.e.9.9.9.w.r.y.2.3.3.%.9.0.t.y.s.j.- O 3 9 1 > < t W.                    ",
"                  o ,.=.r.r.e.w.w.w.w.r.y.2.2.2.w.t.8.0.=.2.,.b O = ; 8 e 6 V.T.                    ",
"                  = c.y.r.r.w.%.;.w.w.w.r.;.2.2.;.t.8.9.w.3.z.~ : 3 8 $ > 6 V.W.                    ",
"                  3 :.=.r.w.w.e.;.r.w.w.w.r.;.2.q.e.8.0.r.3.5.} v o 1 w @ o D.W.                    ",
"                  N s.r.e.w.&.;.2.;.w.9.9.w.r.y.y.e.8.w.;.-.X.F O.O 1 $ y X I.E.                    ",
"                  z 5.;.w.w.r.;.2.2.w.9.9.9.r.y.y.=.r.r.;.2.P ^ ! 9 o w q X R.W.                    ",
"                  N :.r.r.&.;.2.2.2.w.9.9.9.r.y.y.=.r.;.-.3.J /  .z O 8 < 6 T.T.                    ",
"                  4 >.-.9.e.f.-.2.r.r.w.w.w.w.r.r.r.2.3.1.) D / ^ | O w X @.W.                      ",
"                  = i.p.&.$.y.2.2.r.r.r.r.w.w.r.;.y.f.*.s.L S ..o.~ O > X M.E.                      ",
"                  O i.-.r.g.=.;.2.;.r.r.r.r.r.r.y.=.3.1.L L X.H ~ v O O , A.                        ",
"                  o ,.2.e.8.e.y.2.2.r.r.r.r.r.;.;.2.3.) K K X.H ~ : o X C.                          ",
"                  o k.6.%.0.%.y.r.r.r.r.r.r.r.;.2.2.1.L L H ..G _ o [ m.D.                          ",
"                  [ } 6.y.t.u.%.r.r.r.r.r.r.;.2.2.6.) D ( ..G  .9 u G.G.P.                          ",
"                    g 5.-.y.q.e.r.w.r.r.r.;.;.3.1.J ( H } G { 4 X N.D.F.                            ",
"                    + j.6.2.;.y.r.w.w.r.r.;.2.3.L H H }  .{ 4 o B.F.F.                              ",
"                    O  .5.<.3.2.r.w.=.y.;.3.J ) H } ~ { _ : o ] Y.P.                                ",
"                      - k.z.5.6.2.;.v.-.1.) S H ^ { | Q ; o ] S.U.                                  ",
"                      o - l.k.,.a.s.A ( H H o.} | N % o > b.H.D.D.                                  ",
"                        o O C { } ^ G } } | x v : o o ` Z.D.D.F.                                    ",
"                          u O O O O O O O o o o X ' N.V.D.P.A.                                      ",
"                              n.p 6 X X y u B.B.N.U.V.Y.P.A.                                        ",
"                                F.P.K.P.F.P.P.P.P.A.A.P.                                            ",
"                                  L.L.L.L.J.P.J.J.                                                  ",
"                                                                                                    ",
"                                                                                                    "
};
