/* XPM */
static char *f037afd17bb74fde9729dc3a89c996f2anV680mknU5XHxzl[] = {
/* columns rows colors chars-per-pixel */
"50 50 252 2 ",
"   c #343A3B",
".  c #383835",
"X  c #36382D",
"o  c #3A321B",
"O  c #56381A",
"+  c #513207",
"@  c #693919",
"#  c #493829",
"$  c #57382A",
"%  c #423C34",
"&  c #4A3C33",
"*  c #463F3B",
"=  c #553E34",
"-  c #4F2E25",
";  c #633D24",
":  c #3B4439",
">  c #364F35",
",  c #66431D",
"<  c #7B581B",
"1  c #57472B",
"2  c #4C443C",
"3  c #484739",
"4  c #554538",
"5  c #5C5535",
"6  c #664829",
"7  c #784924",
"8  c #654A32",
"9  c #69543A",
"0  c #795737",
"q  c #71532D",
"w  c #75683A",
"e  c #54471C",
"r  c #363B4D",
"t  c #493E48",
"y  c #3C444C",
"u  c #3B4B4D",
"i  c #3A4345",
"p  c #2C4857",
"a  c #364554",
"s  c #3B4453",
"d  c #3B4B53",
"f  c #324C5B",
"g  c #3C4C5C",
"h  c #374758",
"j  c #3C535B",
"k  c #3A5558",
"l  c #2F524A",
"z  c #3A6258",
"x  c #3B4964",
"c  c #3D5A69",
"v  c #3B5A77",
"b  c #344C77",
"n  c #3F6160",
"m  c #444543",
"M  c #444A45",
"N  c #43454C",
"B  c #434B4D",
"V  c #4A4B4B",
"C  c #4C4744",
"Z  c #554A47",
"A  c #565347",
"S  c #434A52",
"D  c #424C5B",
"F  c #494956",
"G  c #534C55",
"H  c #4B5453",
"J  c #43525D",
"K  c #4C555C",
"L  c #4D595C",
"P  c #455857",
"I  c #535554",
"U  c #53545C",
"Y  c #53595C",
"T  c #595755",
"R  c #4A554B",
"E  c #695A46",
"W  c #745B45",
"Q  c #526255",
"!  c #7A644A",
"~  c #726753",
"^  c #474966",
"/  c #445562",
"(  c #4B5662",
")  c #455A64",
"_  c #4D5A63",
"`  c #4B556B",
"'  c #455B6B",
"]  c #4A5A6A",
"[  c #42536A",
"{  c #5B5362",
"}  c #525B63",
"|  c #525B6B",
" . c #545567",
".. c #435D73",
"X. c #485975",
"o. c #535875",
"O. c #514C6D",
"+. c #48626D",
"@. c #476275",
"#. c #546474",
"$. c #55646A",
"%. c #8B4A16",
"&. c #A85A17",
"*. c #B65D1D",
"=. c #B4661B",
"-. c #875936",
";. c #8A542B",
":. c #AA5B26",
">. c #97662D",
",. c #8B6538",
"<. c #996836",
"1. c #9A7639",
"2. c #8F6E2A",
"3. c #A7672C",
"4. c #B46A2C",
"5. c #B46625",
"6. c #B6732B",
"7. c #A76B38",
"8. c #B46C31",
"9. c #A77438",
"0. c #B97636",
"q. c #AD702F",
"w. c #C66C16",
"e. c #CA7832",
"r. c #E57C24",
"t. c #895A41",
"y. c #8E5F4A",
"u. c #87684B",
"i. c #986946",
"p. c #997548",
"a. c #936D54",
"s. c #897655",
"d. c #9B7552",
"f. c #987856",
"g. c #8C704F",
"h. c #A47A45",
"j. c #A87946",
"k. c #B47946",
"l. c #A87B57",
"z. c #B37A52",
"x. c #A36C4C",
"c. c #A57A66",
"v. c #AD7E70",
"b. c #C17C41",
"n. c #6E845D",
"m. c #9D8B3D",
"M. c #AA843C",
"N. c #B2883E",
"B. c #DF8733",
"V. c #978456",
"C. c #8E8650",
"Z. c #B88649",
"A. c #A88656",
"S. c #B98856",
"D. c #AE8C53",
"F. c #9A9879",
"G. c #908B6F",
"H. c #A68966",
"J. c #A79767",
"K. c #B99768",
"L. c #A79777",
"P. c #B89C78",
"I. c #B08A71",
"U. c #B3A57E",
"Y. c #C8854E",
"T. c #CA8A51",
"R. c #C68C56",
"E. c #CB8E56",
"W. c #E7A458",
"Q. c #C89671",
"!. c #CAA67B",
"~. c #E9AF6F",
"^. c #D0A15B",
"/. c #3A5A84",
"(. c #465D83",
"). c #596889",
"_. c #406484",
"`. c #79B8B7",
"'. c #71B5AF",
"]. c #75B9C0",
"[. c #7BC2C9",
"{. c #73C3D9",
"}. c #95968B",
"|. c #AF9C8B",
" X c #92AA94",
".X c #A9A486",
"XX c #AFAB93",
"oX c #9AB8AA",
"OX c #85B9B7",
"+X c #92B5AB",
"@X c #A8B9AA",
"#X c #B9BCAA",
"$X c #A5BCB7",
"%X c #B8BDB7",
"&X c #C59C81",
"*X c #D7B699",
"=X c #CFB293",
"-X c #E3BA8C",
";X c #CEB6AB",
":X c #95C3BB",
">X c #8BC2BA",
",X c #A8C3B9",
"<X c #AFC1AF",
"1X c #F7C795",
"2X c #CDC9B9",
"3X c #EDD5B9",
"4X c #FBDABB",
"5X c #EACAAD",
"6X c #FAE1B7",
"7X c #DBC393",
"8X c #84BEC7",
"9X c #83C2C4",
"0X c #91C9D0",
"qX c #ACCAC8",
"wX c #B7CAC6",
"eX c #B6D2D3",
"rX c #BADCE6",
"tX c #C7D8D3",
"yX c #D2D3C9",
"uX c #EBD9C8",
"iX c #F9DBC4",
"pX c #E9D1C9",
"aX c #D1E6DD",
"sX c #FCE7CA",
"dX c #FFEBDD",
"fX c #FBE7D5",
"gX c #FEF3DB",
"hX c #FAF6DA",
"jX c #EEECD3",
"kX c #D1E1EF",
"lX c #ECEBEA",
"zX c #FDEDEC",
"xX c #F8EDE7",
"cX c #E8F2EC",
"vX c #FEF2E5",
"bX c #F4F3ED",
"nX c #FEF3EB",
"mX c #FEFAED",
"MX c #F6F7E5",
"NX c #EBE9F7",
"BX c #FEEEF3",
"VX c #F7ECF8",
"CX c #EBF7F9",
"ZX c #F6F5F5",
"AX c #FCF4F4",
"SX c #FEFBF4",
"DX c #F5F5FB",
"FX c #FBF5FB",
"GX c #F4FAFC",
"HX c #FDFCFD",
"JX c #F5FAF4",
"KX c #E0D8FF",
/* pixels */
"sXmXbXcXGXJXJXAXbXbXMXmXFXAXfX6X1X1X~.~.~.~.~.~.W.W.~.-X1X6XsXgXBXAXgXgXZXCXCXGXcXbXMXMXsXhXHXVXDXZX",
"vXmXlXHXaXbXHXxXSXmXdXuX;X|.H.p.p.h.h.h.h.h.p.h.j.9.9.p.p.V.H.L.=XiXsXgXnXZXZXHXHXJXlXjXhXhXVXFXDXZX",
"GXNXHXlXAXHXxXmXiX=Xl.<.<.h.A.V.f.f.s.~ ~ T T A E ! u.p.h.l.j.j.p.p.D.7XvXFXBXBXAXZXGXcXMXmXDXFXDXZX",
"KXHXlXHXzXAXdXP.i.j.k.k.9.2.q 9 & % .     i a d i . # - O 6 q q p.D.m.,.l.*XiXvXSXVXDXHXZXJXHXNXDXZX",
"FXGXHXlXHX;Xl.<.Y.k.i.-., O & C T H S y y y y y y N G I I C * % o e ,.D.Z.>.S.4XmXFXKXDXHXcXJXbXZXZX",
"SXSXjXvXpXW i.S.7.;.O - 4 I U D a a h g J J K K ] [ D s s s h S V 4 + + >.R.Z.>.*XFXVXNXHXCXcXJXZXZX",
"MXhXvX5X+ K.I.a.= = 4 Z ^ x b b ..' ......] } _ v v X.#.| ( D h r S C - O ;.M.^.1.*XAXVXDXHXcXGXJXZX",
"MXmXiX7 k.S.0 & { F i r x b /./.] L H y i % $ & y a S H U } | | [ ^ r t Z 6 < 9.Z.>.4XmXxXGXcXCXZXZX",
"bXAXI.;.E.>.= F r ..d u #.| g i # 1 6 q <.3.=.=.-.E 9 8 4 m P +.X.x X.^ F Z O < N.Z.j.sXvXbXGXCXJXZX",
"AXpXt.z.7.7 # S c p c $.M C A E u.g.d.h.S.6.w.6.A.G.f.g.s.~ A : k #.X.b [ i 5 O <.Z.k.1XnXzXCXCXJXZX",
"AX=X7 R.;.; 4 m j f #.U # q ,.d..X.XXXXXXXG.p.V.+XOX XL.J.V.w 5 3 Q ' c c a I # q S.z.Q.nXBXcXGXZXZX",
"vXI.>.S.@ $ A i j ] { & 0 <.S.P.#X,XqX,X$XG.V.F.8X{.oXXX.XL.V.! w > k +.c ' a G $ x.j.l.dXBXVXGXDXZX",
"dXd.0.q.@ 8 B f @.K = 0 k.S.=X2XwXqXqX,XoXG.V.F.9X{.OXoX<X<X Xn.C.5 3 $...(.r ^ # 0 M.1.iXzXFXDXDXZX",
"sXi.k.7.@ Z r v @.B 6 z.k.-XuXtXtXqXqX$XoXG.1.J.9X{.OXOX:X:XOX XC.C.3 U ` X.O.^ & , M.2.5XzXFXVXFXZX",
"iXy.l.a.$ V p _.c : w A.A.3XaXeXaXeXwX,X@XG.M.J.9X{.9XOXOX`.[.:Xs.H.W t U  .o.F 2 e m.2.5XvXFXFXFXZX",
"iXy.v.y.% s ..@.@.X g.1.*XjXwXrXeXwX,X@X#XJ.M.A.:X[.OX>X>X`.`.OXG.I.v.$ T U S U 2 1 m.2.5XnXBXFXFXZX",
"BXc.z.-.% D ^ ` D R V.A.2XwXaXtXwXwX$X@X*XK.1.J.oX>X`.`.OX`.'.'.+XG.S.;.C / D y V 1 M.>.3XAXBXFXZXZX",
"FXv.j.>.% D { { D A A.D.yXtXtXyXwX$XwX2XXXJ.A.V.<X>X9X9X`.'.'.`.OXG.Z.%.M +.] K B 1 k.7.pXHXAXFXZXZX",
"FXI.9.>.3 S G { r Z A.K.2XwXyX%XqXeXeXtX2XU.V.F.,X0X0X[.`.'.`.`.OXG.k.;.: ' ) S B 1 k.9.uXFXAXFXZXZX",
"AX|.9.<.3 B G { y T K.K.#X@X#X<XqXrXeXwXuXXXs.XXqX0X0X].`.9X[.`.OX}.z.i.: +.( y V 1 k.9.iXFXAXFXZXZX",
"AX*X>.1.1 M G U u Q J.J.oX+XoX,XqXeXeXtXuX.Xs.XXqX0X8X`.`.OX`.`.:X XA.d.: +.] S V 1 j.j.fXFXZXFXZXZX",
"AX5X>.9.1 M V U u R C.V. X+XoX<X$XtXyXyXiXP.g.=X<X@XoX$XoX X+X$X,XXXl.g.  ) _ S C 1 j.Z.fXFXFXZXZXZX",
"AX3X>.j.5 2 Z { F T g.f.}.}.}.}.}.XXP.K.!.S.<.Q.P.L..X.XF.G.F.}.}.}.s.! i ) ( S C 1 h.D.dXAXFXZXZXZX",
"AXuX-.A.8 2 G { F G ! ! T Y G Z ~ 1 1 6 , -.,.q 8 9 E 5 5 E E 2 R Q E E B _ _ N C 1 h.D.dXFXFXZXZXZX",
"BXvXi.l.9 % t | [ d : : l l l k u u M m 2 2 3 3 m M B u d d u u H H Z Z K _ ( F * 9 h.K.vXFXFXZXZXZX",
"FXAXc.l.W & N | #.] L Q z z c +.@.' _ _ _ _ _ _ _ _ ] ] @.@.] _ P H U K K } ( S * 9 h.K.nXFXFXFXZXZX",
"FXSX&Xi.g.= F o.o.o.{ Y } _  .o.' ) _ L _ ) ' ) _ L _ ] ' ' ] L H L ( / K } ( F * 9 h.K.nXFXZXZXZXZX",
"ZXSX*Xt.f.= F O.O.O.U U K K O.O.` ) ( K ) ' c ' K K K ) ' ' ) K H L X.[ K Y ( S * W p.!.AXFXZXZXZXZX",
"bXnX5X-.l.1 N x ).).+.P k P ' X...] } } ' ..v .._ } _ ] ..@.] Y I L ..v ( Y K N 2 W p.!.SXDXZXZXZXZX",
"bXvXiX,.l.1 m h ).).#.n z z ' ' ' ( U ( ' v v v ( K K ) c c ) L I _ /.v ( Y K N 2 ! p.=XSXDXZXZXZXZX",
"mXvXsXp.h.q 3 h o.o.] k l P ( / `  .U U ] ..v ..K I I L ) ) L I T } /./.( Y K N 4 ! p.=XHXDXZXZXZXZX",
"SXnXvXc.j.0 3 h h ^ J d R L | ` | } U U ] ....' K T I L ) ) L L Y | (./.( U K N 4 u.p.*XHXFXZXZXZXZX",
"xXFXHX;X<.>.% D x x D K U  .` ` ` ( ( ( _ ] ] ] ( _ _ _ ] ] _ _ ] ` X.X.| } g r $ i.g.3XAXBXVXFXZXZX",
"xXFXGX;X>.3.& D x g P K {  .` ` ] ] ] ] ] ] ] ] ] ( ] ] ] ] ] ] X.X.` | | ( g t ; i.a.3XnXzXVXFXZXAX",
"vXnXFXpX>.9.& S g D H I {  .| ] ] ] ] ] ] ] ] ] ] ] ] ] ] ] ] ] ] ` ( } Y K D 2 , <.d.3XvXzXzXFXAXZX",
"vXxXFXfX<.k.1 B D J H Y {  .| ] ] ] ] ] ] ] ] ] ] ] ] ] ] ] ] ] ] ] _ _ K H d m , <.f.iXvXzXzXFXZXZX",
"MXbXDXbXA.j.5 y j j P L ] o.X.' ] _ _ _ _ _ _ _ _ _ _ } } } ( ( ] ' ] ) J k f M 6 i.H.sXmXbXZXGXZXZX",
"MXZXDXSXP.p.E i g j k ) ] X.....] _ _ _ _ _ _ _ ( _ _ _ _ _ ( _ ' ' ' ) j d f u 6 p.H.fXSXbXZXGXDXDX",
"MXSXDXSX*X1.! % d f k c ' ] ' c ' ' ] ' ' ' ' ' ' ' ' ' ' ' ' ' ' ' ] / d d f B 6 p.L.gXSXbXGXGXDXDX",
"xXSXFXAX5X,.g.# N d k j ( ` ' ' ' ' ' ' ' ' ' ' ' ' ' ' ' ' ' ' ) _ _ K B y d V 6 p.I.gXmXbXFXGXDXDX",
"vXvXzXSX4X<.i.$ C B u S K  .} $.] ] ] ] ] ] _ _ / / / ) _ _ ] _ } U F V C m B Z 7 j.&XgXnXzXAXHXlXZX",
"nXAXBXzXsXH.l.0 2 y u d F K K ( _ _ _ _ _ _ _ _ _ _ _ _ _ _ _ _ K F F N m m N C ,.z.&XfXdXxXHXAXFXGX",
"NXVXFXFXSX|.i.8 m a p p h g g g / K K K K K K K ( ( K K K J J J h h s y y y a N 0 l.*XSXAXVXHXNXDXGX",
"HXDXVXVXHX;Xt.-.V g f f x x g j J J J J J J J J / / / J j g g g g g h h h g x S u.d.;XAXbXDXHXDXlXZX",
"CXGXDXFXHXuXi.-.C d p p a s s d h f f f f f f f f f f f p p p p a a s s y d f y g.u.5XmXSXHXCXDXFXAX",
"ZXHXHXHXmXsX7.%.O . X   . . X X .                               . . . . % X . o ;.;.5XgXmXmXbXHXSXSX",
"fX3X5X*X*X~.r.w.9.p.s.s.a.d.p.p.p.d.d.d.d.d.d.d.d.d.d.d.d.d.d.d.f.f.f.f.d.p.s.i.=.w.W.~.-X-X5X5XuXSX",
"!.-.>.<.Z.6.r.B.Y.S.S.S.S.R.T.T.Y.Y.Y.T.T.T.T.T.Y.Y.Y.Y.T.T.T.R.R.R.R.E.R.S.S.Z.B.B.e.6.b.7.7.@ |.AX",
"4X-.k.0.e.e.e.*.8.8.q.q.6.4.8.8.5.5.5.4.4.4.4.4.4.4.4.4.8.8.8.8.3.3.q.8.8.8.9.4.5.=.4.4.8.3.%.;.dXbX",
"gXx.3.&.&.&.*.:.&.&.&.&.&.&.&.&.5.5.5.5.5.5.4.4.5.4.4.4.4.4.4.4.4.8.0.0.0.0.0.0.e.0.e.b.Y.Y.k.S.dXbX"
};
