/* XPM */
static char *_2cd4c7c3ff54f30c74636b6f68cd5f5ETmXgxAs3xXSFCpz[] = {
/* columns rows colors chars-per-pixel */
"50 50 47 1 ",
"  c black",
". c #010101",
"X c #020202",
"o c gray1",
"O c #040404",
"+ c gray2",
"@ c #060606",
"# c #070707",
"$ c gray3",
"% c #090909",
"& c gray4",
"* c #0B0B0B",
"= c #0C0C0C",
"- c gray5",
"; c #0E0E0E",
": c gray6",
"> c #101010",
", c #111111",
"< c gray7",
"1 c #131313",
"2 c gray8",
"3 c #151515",
"4 c #161616",
"5 c gray9",
"6 c #181818",
"7 c #191919",
"8 c gray10",
"9 c #1B1B1B",
"0 c gray11",
"q c #1D1D1D",
"w c #1E1E1E",
"e c gray12",
"r c #202020",
"t c gray13",
"y c #222222",
"u c #232323",
"i c gray14",
"p c #252525",
"a c gray15",
"s c #272727",
"d c #282828",
"f c gray16",
"g c #2A2A2A",
"h c gray17",
"j c #2C2C2C",
"k c #2D2D2D",
"l c #313131",
/* pixels */
"$$$$$$$$$$$==,,,,,,,,,,,,,,=====$$$===,,=$$$$=33,,",
"$$$$$$$$$$===,,,,,,,,,,,,,,,,============$$$$=,366",
"$$$$$$$$$$===,,,,,,,,,,,,,,,,,,,,===$$$$$$##$$=,00",
"$$$$$$$$$$==,,,,33333333333333,,3,,==$$$$$###$==33",
"$$$$$$$$$$===,,,3333333366666333333,==$$==$##$$===",
"$$$$$$$$$===,,,,333333336066666666633,,,3,=$$$==#$",
"$$$$$$$$===,,,,,33336663000066666666660663,====,==",
"$$$$$$$$===,,,,,33336663000000066000rrrr063,==,,,,",
"###$$$=====,,,336660000000rrrrrrrrr0633,3333333366",
"###$$$=====,,3336600000r00rrrrrrrrr06333,,,3333333",
"###$$$=====,,3336600000r0rrrrrrrirr06633,,,,,,3300",
"###$$======,,33300000rrrrrrrrrrriir06663,,,,,,3336",
"###$$$====,,,333000rrrrrrrrrrrrriir00663,,33333333",
"###$$$===,,,333600rrrrrrrrrrrriiiirr06663666666600",
"###$$$===,,,33360rrrrriirrrrrriidiir066600000000,3",
"###$$$====,,33360rrrrriirrrririidiirr066000rrrrr66",
"##$$$$==,,,33660000rrrrrrrriiiiidddddr06iiiiiiii00",
"##$$$===,,,3366000rrrrrrrrriiiiidddddr06rrriidddrr",
"##$$$$==,,,33600rrrrriiirriiiiiiddjddi00000ridjjll",
"###$$$==,,,36600rrrrriiiiiiiiiidddjddi006000rrrirr",
"###$$===,,336000rrrriiiiiiiiddddddjddir00006633366",
"###$$$==,,336600rrrriiiiiiiddddddjjjdir0rr063,,,rr",
"###$$$==,,336000rrrriiiiiidddddjdjjjdir0rrr0066600",
"###$$$==,,336000rrrriiiiiiidddjjdjjjdir0iiirrrrrii",
"$$$==,,,33660rrrrrrriiiiriiiiiiiijjdidi0r0633,3300",
"$$$==,,,336600rrrrrrriiirriiiiiiijjdidi6r0633333,,",
"$$$===,,33660rrrrrrrrrrirrririiirddiiir60063333333",
"#$$$==,,333660rr00rrrrrrrrrrrriirddirir60633,336==",
"$$$===,,33366000000r0rrrrrrrrrrr0idrrir36633336600",
"#$$$===,,33366000000000rrrrrrrrr0iir0r03633,336666",
"##$$====,,3366000000000rrrrrrrrr0iir0r03333,3360ii",
"##$$$===,,33660000000000rrrrrrrr0ii00r0333,,366000",
"$$===,,,63,3663,666600rr000rrrrrrrrrrrrrr0633366rr",
"$$$==,,,63,36063660000000000rrrrrrrrrrrrii006600rr",
"$$$==,,333,30ir0rr0000660000000rrrrrrrrrirr00000rr",
"$$$==,,,33,6riirirr006630000000000000000rr006666rr",
"$$$===,,3,,3riirirrr06636666600000000000iiiirr0000",
"$$$$==,,3,,30rr0rrrr00666666660000660600dddjddir66",
"#$$==,,,3,,,66630000rr0r6666666666666666riidir0633",
"$$$$==,,3,,,333,6000rrrr6666666666666666336063,=,,",
"==$##$==33333666000000rr600r0663,,,33666,=,====$,,",
"==$##$==,,3333666666600060000633,,,,,336=======$==",
"==$$#$==,,,3333333333666660006333,==$=,,====$$$$$$",
"==$#$$==,,,,,333,,,,,,336660663,6,=$#$$===$$$$$$##",
"==$##$====,,,,,3====,,,,336663,,3,=$##$$$$$$$#####",
"==$#$$======,,,,====,,,,333663,=======$$$$$#######",
"==$#$$=======,,,==,,,,33,33333,=#$,33,=$#$#####o##",
"==$$#$========,,,,,,,333,,363,==o$,663,$$#####oo##",
"====$$$$=#$=$=63$$$=====,==,,==3==$#,idi0#,=o##o##",
"====$$$$=#$=$=63$$$=====,==,,==3==$#,idii$63o=$o##"
};
