/* XPM */
static char *e057eb9715c34382822802ddbb64a037VkxU8OrbtjAprQj8[] = {
/* columns rows colors chars-per-pixel */
"50 50 235 2 ",
"   c #480000",
".  c #5D0302",
"X  c #580605",
"o  c #5B1110",
"O  c #64110F",
"+  c #882627",
"@  c #8A3936",
"#  c #973D3F",
"$  c #9E5E5E",
"%  c #894D4B",
"&  c #B25A5B",
"*  c #AB5B59",
"=  c #B6635F",
"-  c #AC6868",
";  c #B96667",
":  c #AC706F",
">  c #AA7879",
",  c #BB7774",
"<  c #B0716C",
"1  c #8F6D6B",
"2  c #C76F6E",
"3  c #CA7575",
"4  c #C57878",
"5  c #D57B7B",
"6  c #C4716F",
"7  c #E0797D",
"8  c #BF827F",
"9  c #C7837C",
"0  c #D5837D",
"q  c #CF7E84",
"w  c #E57E85",
"e  c #9E8684",
"r  c #B88888",
"t  c #BD9C9B",
"y  c #BD9896",
"u  c #AA8081",
"i  c #C58B8B",
"p  c #CD8C8A",
"a  c #CB8684",
"s  c #D68486",
"d  c #D48A8B",
"f  c #DB8D8B",
"g  c #D78786",
"h  c #CC928D",
"j  c #D5918D",
"k  c #DD968D",
"l  c #CB8F91",
"z  c #D78F94",
"x  c #C39594",
"c  c #CB9395",
"v  c #CB9996",
"b  c #CD9999",
"n  c #C89A9A",
"m  c #D39394",
"M  c #DC9394",
"N  c #DD9A95",
"B  c #DC969B",
"V  c #DD9C9B",
"C  c #D29E99",
"Z  c #E2868A",
"A  c #E48B8B",
"S  c #E48B87",
"D  c #F58A8F",
"F  c #E2928D",
"G  c #EA8C93",
"H  c #FA8B96",
"J  c #E39393",
"K  c #EC9293",
"L  c #E39A96",
"P  c #EB9A97",
"I  c #E39B9B",
"U  c #EC9D9D",
"Y  c #E5969B",
"T  c #F39B97",
"R  c #FD949B",
"E  c #F49C9C",
"W  c #FA9D9C",
"Q  c #F59396",
"!  c #DCA29D",
"~  c #C9A197",
"^  c #ECA19D",
"/  c #E5A69B",
"(  c #F2A19E",
")  c #FCA09C",
"_  c #D99CA2",
"`  c #E79FA2",
"'  c #EB9EA2",
"]  c #FF97A5",
"[  c #F39CA2",
"{  c #FE9DA3",
"}  c #C5ABA4",
"|  c #C9A5A5",
" . c #D3A5A4",
".. c #DDA4A3",
"X. c #D6AAA1",
"o. c #D4ADAD",
"O. c #DAAEAC",
"+. c #DDAAA4",
"@. c #D5B1AE",
"#. c #DBB2AC",
"$. c #DDB8AF",
"%. c #DCAFB1",
"&. c #D4B6B5",
"*. c #DCB4B3",
"=. c #DCB9B4",
"-. c #D6BCBA",
";. c #DCBCBB",
":. c #D8B8B7",
">. c #CBB6B6",
",. c #E3A4A4",
"<. c #EBA2A4",
"1. c #ECA9A5",
"2. c #E6ADAD",
"3. c #ECACAA",
"4. c #E7A7A9",
"5. c #F3A4A4",
"6. c #FCA3A2",
"7. c #FAAAA4",
"8. c #FEA4AA",
"9. c #F3ACAC",
"0. c #FCACAB",
"q. c #F3A8A7",
"w. c #E3B2AD",
"e. c #ECB2AD",
"r. c #F4B3AD",
"t. c #FEB2AD",
"y. c #E6AEB1",
"u. c #EDAEB2",
"i. c #F6ADB1",
"p. c #FAADB2",
"a. c #E3B5B3",
"s. c #EBB4B3",
"d. c #E1B9B5",
"f. c #ECBBB5",
"g. c #E5B5BA",
"h. c #E4BBBB",
"j. c #ECBCBB",
"k. c #ECB5B9",
"l. c #F4B4B3",
"z. c #FCB4B5",
"x. c #F3B9B6",
"c. c #FEBAB5",
"v. c #F4B7BA",
"b. c #FDB6B9",
"n. c #F4BCBB",
"m. c #FEBCBC",
"M. c #D9C1BD",
"N. c #E4C4BD",
"B. c #EBC3BE",
"V. c #F3C2BD",
"C. c #FEC1BD",
"Z. c #FCCABE",
"A. c #FAC1B6",
"S. c #FAD1BF",
"D. c #D8BFC2",
"F. c #E8BDC0",
"G. c #F5BEC2",
"H. c #FEBEC2",
"J. c #DEC5C2",
"K. c #D7C6C1",
"L. c #E3C4C2",
"P. c #EDC5C3",
"I. c #E4C9C6",
"U. c #EBCBC4",
"Y. c #E5CCCB",
"T. c #EBCCCB",
"R. c #EBC2C8",
"E. c #F5C4C3",
"W. c #FDC4C3",
"Q. c #F3CAC4",
"!. c #FDCBC5",
"~. c #FEC6CA",
"^. c #F4CCCB",
"/. c #FECCCB",
"(. c #F5C6C8",
"). c #EBD1CE",
"_. c #E3D0CC",
"`. c #FED2C4",
"'. c #F4D1CB",
"]. c #FED2CD",
"[. c #FED9CD",
"{. c #FEDAC4",
"}. c #ECCCD2",
"|. c #F4CDD2",
" X c #FECCD3",
".X c #FAC7D0",
"XX c #EDDBD5",
"oX c #E6D6D5",
"OX c #F3D3D3",
"+X c #FED4D2",
"@X c #F4DAD6",
"#X c #FDD9D5",
"$X c #FBD6D8",
"%X c #F5DCDB",
"&X c #FDDBDB",
"*X c #F4D6D8",
"=X c #EFE3DC",
"-X c #FEE2DE",
";X c #F3E6DE",
":X c #FFDEE1",
">X c #F4DEE0",
",X c #E6ECEA",
"<X c #F5E3E4",
"1X c #FEE5E4",
"2X c #FFEBE5",
"3X c #FEEDEC",
"4X c #F5EBE9",
"5X c #E8F4EE",
"6X c #F4F3EE",
"7X c #FFF1ED",
"8X c #FFEEF2",
"9X c #F4EEF4",
"0X c #EDFCFC",
"qX c #EBF8F4",
"wX c #F4F4F3",
"eX c #FEF4F3",
"rX c #F5FAF6",
"tX c #FEFAF6",
"yX c #FEFAF5",
"uX c #FEF5FB",
"iX c #F6FFFE",
"pX c #F4FDFD",
"aX c #FFFAF9",
"sX c #FFFCFA",
"dX c #FFFEFB",
"fX c #FFFDF9",
"gX c #FAFAFD",
"hX c #F8FFFF",
"jX c #FBFEFE",
"kX c #FFFFFD",
"lX c #FCFFFF",
"zX c #FFFFFF",
"xX c #FDFDFF",
"cX c #FDFDFD",
"vX c #F6F5F9",
/* pixels */
"vXgXzXzXzXzXzXiXxXxXiXiXqXqXpXiXzX6XeXyXtX%XP.(.h.h.P.$X8XaXuX3XtXsXsXsXsXvXvXgXzXzXzXzXxXvXvXxXzXrX",
"gXgXxXzXzXxXgXpXpXxXiXiXiXpXiXxXwXsXaX<XY.I.P.B.^.^.P.h.&.J.1XaXeXtXsXsXsXzXzXzXzXgXvXgXzXzXxXrXxXwX",
"zXzXzXzXzXzXxXpXzXzXxXxXrXiXxXzXsXeX_.} } P.'.P.P.Q.^.^.I.I.Y.Y.4XtXyXsXsXsXsXuXzXxXvXwXgXzXzXzXgXwX",
"zXzXzXzXzXzXzXzXwXvXsXzXsXsXyXtXeXI.t t =.'.+X].+X^.Q.'.#X$XI.-.M.=XtXtXeXtXaXsXaXsXsXsXsXtXtXzXzXgX",
"xXxXrXwXwXaXsXsXsXaXeX3X7XtXsXtX;.o.o.B.].!.!.].+X].].].^.^.^.'.J.XX-XXXI.J.J.M.Y.@X3XaXaXsXsXsXzXzX",
"rXfXsXsXsXaXeX3X3X%XT.I.I.).@X&X .y.E.].].!.!.!.V.!.].].^.Q.^.'.} } } &.N.U.P.P.h.;.;.Y.%X7XtXaXaXzX",
"rXyXsXaXeX1X%X'.o.*.h.P.P.d.| x n.m.C.C.W.`.`.Z.`.!.!.Z.!.!./.].^.=.o.f././.W.W.].E.j.d.h.I.T.).oXaX",
"sX6XoXK.&.:.h.V.]./././././.n.y.H.m.b.m.!.`.`.Z.Z.!.`.[.#X].!.W.+Xf.O.x.n.3.3.z.z.m././.E.h.*.-.>.4X",
"wXsXoX>.^.h.n.l.9.I q.p.4.z.,.m.' - U m.c.c.r.h / / e.1.`.]./.].+Xn.s.1.M f F g f U L V _ c ^.o.8XuX",
"zXxX3X&.*.b m z U J J Y J d B I ; M M a ^ 9 4 ^ / N / r.C.`.+Xn.,.&X!.q.J K 0.A W 6.6.<.N ..k.F.eXuX",
"uXuXaXOX*.s.I 0.6.W E E U d z.9.<.W.t.L f = f t.^ k g q.N r.l.8 % : ]./.P K K ) 8.6.0.q.B v.y.:XeXaX",
"vXzXeXeX%.n.I t.6.W 6.6.U U ~.W.W.I M M 4 ; 6.T t.2 * t.9.j l.n.+.% 4./.( T K W 6.W 0.<.,.G.j.uXuXaX",
"zXzXuXuX^.s.<.U 6.T 6.( L z.m././.x.N a U E 6.6.6.Z 2 U z.I /.].+Xa.v !.t.g t.W ) E 5.I s.g.$XuXaXzX",
"iXxXzX3X7Xa.l.L 0.7.0.q.<.!.x./.V.].l.p 6.6.Q R R 8.p.6.5.V l.v y ^.f.`.!.f F z.7.7.^ ! j.*.1XeXzXzX",
"0XpXzX4XeXd...N 5.0.^ I x.!.V.Q.B.!.W.b.P 5 { R 8.D { p.d , ..j.L.L.'.V.{.A.g t.7.q.! +.d.).7X3XzXzX",
"0XxXzXxXuX-X .n.V r.N N /./.+XQ.Q.^.V./.J # 7 D R w w & o $ n.#X'.U.[.[.A.A.c.j 1./ ! #.;.3XsXtXzXzX",
"uXxXuXuXuXuX}.| _ _ B ~.~.E.Q.'.'./.!./.0.O . + + + . X % W.!.`.`.{.`.{.Z.C.c.I j ,.O.o.).uXsXzXzXzX",
"uXuX9XgXzXuXuX}.g.4.z H.~./.'.'.].].!./.m.@ .     X O o 3.].].`.S.`.`.`.Z.C.C.,.y.g.;.T.eXsXxXxXzXzX",
"xXpXiXiXiX,XsXuX$Xj.b s./.+X].Q.'.].].+Xz.@ @ = & ; * , !.+X!.].Q.`.!.].!.!./.O. .L.%XeXzXzXrXiXiXiX",
"0X5XqXrXfXsXyXtX3X&XO.a.^.].].!.].Q.E.].!., ; 3 3 g d +Xx.].^.P.E./.^.+X/./.+X;.&.1XaXzXzXxXiXiXxXxX",
"yXyXyX4X;X2X-XeXeX3XU.d.Q.!./.!.^.+X/.W.+XW.' 6 4 d 9././.E.1XQ.~./.~.+X X|.$X;.>XaXsXwXwXiXiXiXzXxX",
"7X7X).&.x  .v O.#X2X'.=.B.V.!.!.^.+X].E./.+X+XW.~.+X/.s.+X^.&X&X~. X.X X|.OX%XD.<XuXsXsXsXtXaXzXxXxX",
"3X,.M Y 8.H.q.a s.].B.X.V.V.W.W.+XB.j./.+X~.H.W.b. XW.n./.+XB.+X X X X X|.|.*X-.1XuXtX7X2X1X3XaXsXzX",
"z.; G 8.] ] { 3 M x.w.~ V.V.W.m.+X/./. XW.W.W./. XW.:X$XE.^.(./. X X X X^.^.OX;.eXeXU.n x O.j.(.tXyX",
"A Z R H H H w Z <.#X!.w.C l.W.z.x.V.E./. X X/./././. X X/./.]./.&X~.~.E.Q.E.d.B.#XX.i V z.0.Y M B.eX",
"M 4 q K R G s ' W.e.f.`.! ,.W.W.W.V.n.n.n.W.~./.~.~././././.]./.W.m./.W.s.O.X.f.w.V j I 8.6.R K : V.",
"^.n r c m i i y.n.W.E.W.x.l.' z.W.W.m.n.v.v.G.H.~.~.W.W.m.n.n.x.W.l.l.e.l.A.C.!.`.9.M A G D R { 6 Y ",
"7X=XXX@X%X).;.&.*.'./.s./.W.z Y r.l.m.H.W.H.m.v.v.v.b.m.m.m.m.C.!.l.,.1.n.!.W.C.c.z.q.J f Z G K s Y ",
"vXfXyXsXsXsXtXXX).| a.E.W.m.3.4.N I 1.l.b.H.H.H.H.H.m.m.b.b.b.b.V 3.l.n.n.x.x.l.3.!.W.m 4 m I p c E.",
"zXgX,X5X0XpXsXsX7XL.g.s.n.2.w.m.1.^ ^ U <.5.9.l.H.m.b.r.q.^ L L m l.H.W.b.l.W.W.!.V.s.w.a.E.^.^.%XeX",
"uXxXgXxXiXrXxXtXuXuX:Xg.j. .#.V.c.t.0.5.<.` ` <.` <.<.<.^ ^ ( ^ W. XW.H.H.n.~.k.j.*.L.3XtXtXtXyXsXsX",
"uXxXuXzXiXqXxXgXaXuXuX3Xd.n ^.j.t.t.b.b.b.z.i.9.<.<.5.q.0.t.t.z.b.W.l.v.H.G.~.%.h.1XaXuX3XwXtXyX5XxX",
"zXuXzXzXgXzXzXpXxXxXeXeX:X@.^.k.m.b.b.z.z.p.i.i.9.i.p.p.z.b.b.b.p.H.m.b./.(.*.;.1XaXuX4XtXsXfXzXzXzX",
"sXsXzXzXxXzXzXzXxXzXxXsX%X=.+XW.m.m.m.b.b.z.z.z.i.i.z.z.b.b.m.m.H.m.m.n.W.*.t Y.<XsXzXzXzXrXrXzXzXzX",
"yXsXzXzXzXgXgXzXzXzXzXaX).=.!.n.W.m.m.b.b.b.b.b.z.z.b.b.b.m.m.m.W.b.u.&Xa.> t e <XuXsXsXzXrXrXxXzXzX",
"fXsXyXaXzXuX9XzXzXzXsXtXJ.=.E.n.C.C.m.m.m.m.m.m.b.m.b.m.m.C.C.C.l.z./...^.P.1 -.3XuXeXwXxXxXxXpXzXzX",
"fXfX6XtXsXaXeXaXeXyXtXtXN.N.Q.V.C.C.C.C.C.C.m.C.C.C.C.C.C.C.C.C.m.m.W.h w.Q.y uXtXaXsX6XrXiXiXqXxXzX",
"fXrX6XyXsX7X3XtXtXtXtX2XU.B.V.x.n.m.m.C.m.C.C.C.C.C.C.C.m.C.m.m./.x.4.C.i r 1X1XeXtXsXtX6XfXiXrXxXzX",
"sXyXtXtX@Xh.L.'.2X2X-XU.Q.B.f.s.c.c.b.c.c.m.m.C.C.C.C.m.c.c.b.b.l.l.W.n.n.n.j.+XU.L.XXeXuXrXxXiXzXzX",
"sXtXtX3X=.r r C s.n.f.X.E.W.W.C.z.c.c.c.b.c.m.m.m.C.m.c.b.c.c.b.l.m.W.H.m.W.,.: n u | <XaXaXxXxXzXzX",
"sXsX3X1Xx i ,.9., , x.!.!.m.m.e.b.b.b.b.m.m.C.C.C.m.m.m.m.b.b.b.b.H.m.W./.9.q d l.b r OXaXxXvXzXzXzX",
"aXaXuX&Xl V Y E U g 1.r.r.l.W.W.C.m.m.b.b.b.b.z.b.b.b.b.b.b.b.b.H.H.z.z.b.[ f 5.q.B _ R.eXxXxXzXzXzX",
"aXuXuX&Xl <.K K T 0 ^ W.m.m.v.n.m.m.m.m.H.C.W.W.b.b.m.m.W.W.W.W.m.W.m.b.z.G Z [ [ ' u.g.8XuXzXzXzXzX",
"xXuXuX:Xm Y Q Q W 5 F C.m.H.k.G.v.n.n.m.m.W.W.W.m.m.m.n.n.l.l.l.l.m.H.m.z.Z A { [ i.4.j.8XuXzXzXzXzX",
"xXzXeX3X,.d T W 0.S P !.C.~.F.^.Q.Q.E.E.V.n.n.j.E.E.E.E.!./././.E.!.W.b.0.3 Z T 6.z.m +XuXuXzXxXzXzX",
"pXxXeXeXE.d P T ) 0 L m.s.h.:.;.o.O.O.O.O.O.O.O.*.=.=.=.a.d.d.d.j.E.W.b.0.3 A K 0.9.c 1XuXuXxXpXzXzX",
"0XpXgXeX&Xr.F F S 6 k !  .o.I.T.OXOX@X$X&X-X-X1X1X-X&XOXI.L.;.=.@.#.a.l.z.0 6.6.0.I s.3XaXzXiX0XxXzX",
"0XpXzXeXeX+Xh 9 p a !.-X3X3XaXuXaXtXtXtXtXtXuXtXtXtXuXeX7X7X3X3X-X).N.#.+.< L L q.p +X7XsXzXiXpXxXzX",
"iXxXzXzXaXeX3X1XeXeXuXtXtXaXaXaXsXsXsXsXsXsXsXsXsXsXsXsXsXsXaXaXzXzX4X3X7XT.b l i j.-X7XsXzXzXxXzXzX",
"zXzXzXzXzXvXwX9XxXxXxXzXsXfXfXfXzXzXzXzXzXzXzXzXzXzXzXzXzXzXzXzXzXgXrXsXsXeXOXj.G.1XtXtXsXxXgXvXzXzX"
};
