/* XPM */
static char *_5a608cb2152470acba682983aec9bc0wrMncv8joz2uho5N[] = {
/* columns rows colors chars-per-pixel */
"50 50 5 1 ",
"  c None",
". c #9E5636",
"X c #518425",
"o c #CC8A5E",
"O c #94CE51",
/* pixels */
"                  XXXOXXX                         ",
"                XOOOOOOOOOX                       ",
"               XOOOOOOOOOOOO                      ",
"               OOOOOOOOOOOOOX   XXOOOOX           ",
"              XOOOOOOOOOOOOOOX XOOOOOOOOX         ",
"          XOOOOOOOOOOOOOOOOOOXXOOOOOOOOOOOX       ",
"         OOOOOOOOOOOOOOOOOOOOOOOOOOOOOOOOOOX      ",
"        XOOOOOOOOOOOOOOOOOOOOOOOOOOOOOOOOOOO      ",
"        OOOOOOOOOOOOOOOOOOOOOOOOOOOOOOOOOOOOX     ",
"       XOOOOOOOOOOOOOOOOOOOOOOOOOOOOOOOOOOOOX     ",
"       XOOOOOOOOOOOOOOOOOOOOOOOOOOOOOOOOOOOOO     ",
"       XOOOOOOOOOOOOOOOOOOOOOOOOOOOOOOOOOOOOX     ",
"        OOOOOOOOOOOOOOOOOOOOOOOOOOOOOOOOOOOOOXX   ",
"    XXXXXOOOOOOOOOOOOOOOOOOOOOOOOOOOOOOOOOOOOOOO  ",
"  XOOOOOOOOOOOOOOOOOOOOOOOOOOOOOOOOOOOOOOOOOOOOOO ",
" XOOOOOOOOOOOOOOOOOOOOOOOOOOOOOOOOOOOOOOOOOOOOOOOX",
" OOOOOOOOOOOOOOOOOOOOOOOOOOOOOOOOOOOOOOOOOOOOOOOOX",
"XOOOOOOOOOOOOOOOOOOOOOOOOOOOOOOOOOOOOOOOOOOOOOOOOX",
"XOOOOOOOOOOOOOOOOOOOOOOOOOOOOOOOOOOOOOOOOOOOOOOOOX",
"XOOOOOOOOOOOOOOOOOOOOOOOOOOOOOOOOOOOOOOOOOOOOOOOOX",
"XOOOOOOOOOOOOOOOOOOOOOOOOOOOOOOOOOOOOOOOOOOOOOOOO ",
"XOOOOOOOOOOOOOOOOOOOOOOOOOOXOOOOOOOOOOOOOOOOOOOOX ",
" XOOOOOOOOOOOOOOOOOOOOOOOOOXOOOOOOOOOOOOOOOOOOOX  ",
"  XXOOOOOOOOOOOOOOOOOOOOOOX XOOOOOOOOOOOOOOOOXX   ",
"      OOOOOOOOOOOOOOOOOOOX   XOOOOOOOOOOOOOOX     ",
"      OOOOOOOOOOOOOXOOOOX   .oooOOOOOOOOOOOX      ",
"      XOOOOOOOOOOOXooXXX.  .ooooXOOOOOOOOOX       ",
"        XXXX  XOX  .oooooo.oooo   XOOOOOOX        ",
"                    .ooooooooo.     XXXX          ",
"                     .ooooooo.                    ",
"                     .ooooooo.                    ",
"                     .ooooooo.                    ",
"                     .ooooooo                     ",
"                     .ooooooo                     ",
"                     .ooooooo                     ",
"                     .ooooooo                     ",
"                     .ooooooo.                    ",
"                     oooooooo.                    ",
"                     oooooooo.                    ",
"                     oooooooo.                    ",
"                    .ooooooooo                    ",
"                    .ooooooooo                    ",
"                    .ooooooooo.                   ",
"                    ooooooooooo                   ",
"                   .ooooooooooo.                  ",
"                   ooooooooooooo                  ",
"                  oooooooooooooo.                 ",
"                 oooo. .ooo.ooooo.                ",
"               .....     .o   ..oo.               ",
"                          .                       "
};
